<mxfile host="app.diagrams.net" modified="2020-05-25T01:54:06.888Z" agent="5.0 (Macintosh; Intel Mac OS X 10_12_6) AppleWebKit/537.36 (KHTML, like Gecko) Chrome/81.0.4044.138 Safari/537.36" etag="pg5H7nmZbtyGjoJWd_AW" version="13.0.8" type="github">
  <diagram name="Page-1" id="b520641d-4fe3-3701-9064-5fc419738815">
    <mxGraphModel dx="946" dy="597" grid="1" gridSize="10" guides="1" tooltips="1" connect="1" arrows="1" fold="1" page="1" pageScale="1" pageWidth="1100" pageHeight="850" background="#ffffff" math="0" shadow="0">
      <root>
        <mxCell id="0" />
        <mxCell id="1" parent="0" />
        <mxCell id="21ea969265ad0168-39" style="edgeStyle=orthogonalEdgeStyle;html=1;labelBackgroundColor=none;startFill=0;startSize=8;endFill=1;endSize=8;fontFamily=Verdana;fontSize=12;exitX=1;exitY=0.5;" parent="1" edge="1">
          <mxGeometry relative="1" as="geometry">
            <Array as="points" />
            <mxPoint x="250" y="106" as="sourcePoint" />
            <mxPoint x="370" y="106" as="targetPoint" />
          </mxGeometry>
        </mxCell>
        <mxCell id="Hgtj_GoyG-KB-VZRIQT7-11" value="search[keywordEntered]" style="text;html=1;strokeColor=none;fillColor=none;align=center;verticalAlign=middle;whiteSpace=wrap;rounded=0;" parent="1" vertex="1">
          <mxGeometry x="540" y="106" width="80" height="20" as="geometry" />
        </mxCell>
        <mxCell id="Hgtj_GoyG-KB-VZRIQT7-16" value="" style="ellipse;html=1;shape=endState;fillColor=#000000;strokeColor=#ff0000;" parent="1" vertex="1">
          <mxGeometry x="870" y="720" width="30" height="30" as="geometry" />
        </mxCell>
        <mxCell id="Hgtj_GoyG-KB-VZRIQT7-17" value="" style="ellipse;html=1;shape=startState;fillColor=#000000;strokeColor=#ff0000;" parent="1" vertex="1">
          <mxGeometry x="70" y="85" width="30" height="30" as="geometry" />
        </mxCell>
        <mxCell id="Hgtj_GoyG-KB-VZRIQT7-18" value="" style="edgeStyle=orthogonalEdgeStyle;html=1;verticalAlign=bottom;endArrow=open;endSize=8;strokeColor=#ff0000;" parent="1" source="Hgtj_GoyG-KB-VZRIQT7-17" edge="1">
          <mxGeometry relative="1" as="geometry">
            <mxPoint x="160" y="100" as="targetPoint" />
          </mxGeometry>
        </mxCell>
        <mxCell id="Hgtj_GoyG-KB-VZRIQT7-26" value="go to appointments booking" style="text;html=1;strokeColor=none;fillColor=none;align=center;verticalAlign=middle;whiteSpace=wrap;rounded=0;" parent="1" vertex="1">
          <mxGeometry x="250" y="74" width="110" height="20" as="geometry" />
        </mxCell>
        <mxCell id="Hgtj_GoyG-KB-VZRIQT7-28" value="" style="endArrow=classic;html=1;" parent="1" edge="1">
          <mxGeometry width="50" height="50" relative="1" as="geometry">
            <mxPoint x="510" y="99.5" as="sourcePoint" />
            <mxPoint x="650" y="100" as="targetPoint" />
            <Array as="points">
              <mxPoint x="550" y="100" />
            </Array>
          </mxGeometry>
        </mxCell>
        <mxCell id="21ea969265ad0168-6" value="Dashboard" style="swimlane;html=1;fontStyle=0;childLayout=stackLayout;horizontal=1;startSize=26;fillColor=#e0e0e0;horizontalStack=0;resizeParent=1;resizeLast=0;collapsible=1;marginBottom=0;swimlaneFillColor=#ffffff;align=center;rounded=1;shadow=0;comic=0;labelBackgroundColor=none;strokeWidth=1;fontFamily=Verdana;fontSize=12" parent="1" vertex="1">
          <mxGeometry x="140" y="74" width="110" height="52" as="geometry" />
        </mxCell>
        <mxCell id="21ea969265ad0168-7" value="idle" style="text;html=1;strokeColor=none;fillColor=none;spacingLeft=4;spacingRight=4;whiteSpace=wrap;overflow=hidden;rotatable=0;points=[[0,0.5],[1,0.5]];portConstraint=eastwest;" parent="21ea969265ad0168-6" vertex="1">
          <mxGeometry y="26" width="110" height="26" as="geometry" />
        </mxCell>
        <mxCell id="Hgtj_GoyG-KB-VZRIQT7-1" value="Bills tab" style="swimlane;html=1;fontStyle=0;childLayout=stackLayout;horizontal=1;startSize=26;fillColor=#e0e0e0;horizontalStack=0;resizeParent=1;resizeLast=0;collapsible=1;marginBottom=0;swimlaneFillColor=#ffffff;align=center;rounded=1;shadow=0;comic=0;labelBackgroundColor=none;strokeWidth=1;fontFamily=Verdana;fontSize=12" parent="1" vertex="1">
          <mxGeometry x="370" y="74" width="140" height="60" as="geometry" />
        </mxCell>
        <mxCell id="Hgtj_GoyG-KB-VZRIQT7-2" value="display Bills" style="text;html=1;strokeColor=none;fillColor=none;spacingLeft=4;spacingRight=4;whiteSpace=wrap;overflow=hidden;rotatable=0;points=[[0,0.5],[1,0.5]];portConstraint=eastwest;" parent="Hgtj_GoyG-KB-VZRIQT7-1" vertex="1">
          <mxGeometry y="26" width="140" height="34" as="geometry" />
        </mxCell>
        <mxCell id="sU12HxXbu1go9HaSJLEV-4" value="" style="endArrow=classic;html=1;" parent="1" edge="1">
          <mxGeometry width="50" height="50" relative="1" as="geometry">
            <mxPoint x="419.5" y="276" as="sourcePoint" />
            <mxPoint x="420" y="310" as="targetPoint" />
          </mxGeometry>
        </mxCell>
        <mxCell id="Hgtj_GoyG-KB-VZRIQT7-5" value="Search" style="swimlane;html=1;fontStyle=0;childLayout=stackLayout;horizontal=1;startSize=26;fillColor=#e0e0e0;horizontalStack=0;resizeParent=1;resizeLast=0;collapsible=1;marginBottom=0;swimlaneFillColor=#ffffff;align=center;rounded=1;shadow=0;comic=0;labelBackgroundColor=none;strokeWidth=1;fontFamily=Verdana;fontSize=12" parent="1" vertex="1">
          <mxGeometry x="650" y="74" width="150" height="80" as="geometry" />
        </mxCell>
        <mxCell id="Hgtj_GoyG-KB-VZRIQT7-6" value="read: keyword&lt;br&gt;do:validate keyword&lt;br&gt;exit:display results" style="text;html=1;strokeColor=none;fillColor=none;spacingLeft=4;spacingRight=4;whiteSpace=wrap;overflow=hidden;rotatable=0;points=[[0,0.5],[1,0.5]];portConstraint=eastwest;" parent="Hgtj_GoyG-KB-VZRIQT7-5" vertex="1">
          <mxGeometry y="26" width="150" height="54" as="geometry" />
        </mxCell>
        <mxCell id="d0l99uiaqlxAbVS5GRuo-3" value="" style="endArrow=classic;html=1;" parent="1" edge="1">
          <mxGeometry width="50" height="50" relative="1" as="geometry">
            <mxPoint x="710" y="154" as="sourcePoint" />
            <mxPoint x="710" y="210" as="targetPoint" />
          </mxGeometry>
        </mxCell>
        <mxCell id="d0l99uiaqlxAbVS5GRuo-5" value="[keywordValid]" style="text;html=1;strokeColor=none;fillColor=none;align=center;verticalAlign=middle;whiteSpace=wrap;rounded=0;" parent="1" vertex="1">
          <mxGeometry x="730" y="170" width="40" height="20" as="geometry" />
        </mxCell>
        <mxCell id="d0l99uiaqlxAbVS5GRuo-17" value="" style="endArrow=classic;html=1;" parent="1" edge="1">
          <mxGeometry width="50" height="50" relative="1" as="geometry">
            <mxPoint x="709.5" y="280" as="sourcePoint" />
            <mxPoint x="670" y="330" as="targetPoint" />
          </mxGeometry>
        </mxCell>
        <mxCell id="d0l99uiaqlxAbVS5GRuo-21" value="edit" style="text;html=1;strokeColor=none;fillColor=none;align=center;verticalAlign=middle;whiteSpace=wrap;rounded=0;" parent="1" vertex="1">
          <mxGeometry x="640" y="415" width="40" height="20" as="geometry" />
        </mxCell>
        <mxCell id="d0l99uiaqlxAbVS5GRuo-28" value="" style="endArrow=classic;html=1;entryX=0.5;entryY=0;entryDx=0;entryDy=0;" parent="1" target="Hgtj_GoyG-KB-VZRIQT7-16" edge="1">
          <mxGeometry width="50" height="50" relative="1" as="geometry">
            <mxPoint x="885" y="463" as="sourcePoint" />
            <mxPoint x="899" y="533" as="targetPoint" />
          </mxGeometry>
        </mxCell>
        <mxCell id="d0l99uiaqlxAbVS5GRuo-13" value="Results" style="swimlane;html=1;fontStyle=0;childLayout=stackLayout;horizontal=1;startSize=26;fillColor=#e0e0e0;horizontalStack=0;resizeParent=1;resizeLast=0;collapsible=1;marginBottom=0;swimlaneFillColor=#ffffff;align=center;rounded=1;shadow=0;comic=0;labelBackgroundColor=none;strokeWidth=1;fontFamily=Verdana;fontSize=12" parent="1" vertex="1">
          <mxGeometry x="655" y="210" width="110" height="76" as="geometry" />
        </mxCell>
        <mxCell id="d0l99uiaqlxAbVS5GRuo-14" value="display results" style="text;html=1;strokeColor=none;fillColor=none;spacingLeft=4;spacingRight=4;whiteSpace=wrap;overflow=hidden;rotatable=0;points=[[0,0.5],[1,0.5]];portConstraint=eastwest;" parent="d0l99uiaqlxAbVS5GRuo-13" vertex="1">
          <mxGeometry y="26" width="110" height="34" as="geometry" />
        </mxCell>
        <mxCell id="hzU_NkVj4ORqpsmPhhT7-3" value="" style="endArrow=classic;html=1;entryX=0;entryY=0.147;entryDx=0;entryDy=0;entryPerimeter=0;" parent="1" target="d0l99uiaqlxAbVS5GRuo-26" edge="1">
          <mxGeometry width="50" height="50" relative="1" as="geometry">
            <mxPoint x="724.5" y="375" as="sourcePoint" />
            <mxPoint x="765" y="415" as="targetPoint" />
          </mxGeometry>
        </mxCell>
        <mxCell id="d0l99uiaqlxAbVS5GRuo-7" value="Bill selection" style="swimlane;html=1;fontStyle=0;childLayout=stackLayout;horizontal=1;startSize=26;fillColor=#e0e0e0;horizontalStack=0;resizeParent=1;resizeLast=0;collapsible=1;marginBottom=0;swimlaneFillColor=#ffffff;align=center;rounded=1;shadow=0;comic=0;labelBackgroundColor=none;strokeWidth=1;fontFamily=Verdana;fontSize=12" parent="1" vertex="1">
          <mxGeometry x="550" y="330" width="170" height="76" as="geometry" />
        </mxCell>
        <mxCell id="d0l99uiaqlxAbVS5GRuo-8" value="display bill&amp;nbsp;" style="text;html=1;strokeColor=none;fillColor=none;spacingLeft=4;spacingRight=4;whiteSpace=wrap;overflow=hidden;rotatable=0;points=[[0,0.5],[1,0.5]];portConstraint=eastwest;" parent="d0l99uiaqlxAbVS5GRuo-7" vertex="1">
          <mxGeometry y="26" width="170" height="34" as="geometry" />
        </mxCell>
        <mxCell id="hzU_NkVj4ORqpsmPhhT7-5" value="" style="endArrow=classic;html=1;" parent="1" edge="1">
          <mxGeometry width="50" height="50" relative="1" as="geometry">
            <mxPoint x="640" y="406" as="sourcePoint" />
            <mxPoint x="640" y="470" as="targetPoint" />
          </mxGeometry>
        </mxCell>
        <mxCell id="hzU_NkVj4ORqpsmPhhT7-6" value="Bill form editing" style="swimlane;html=1;fontStyle=0;childLayout=stackLayout;horizontal=1;startSize=26;fillColor=#e0e0e0;horizontalStack=0;resizeParent=1;resizeLast=0;collapsible=1;marginBottom=0;swimlaneFillColor=#ffffff;align=center;rounded=1;shadow=0;comic=0;labelBackgroundColor=none;strokeWidth=1;fontFamily=Verdana;fontSize=12" parent="1" vertex="1">
          <mxGeometry x="550" y="470" width="200" height="76" as="geometry" />
        </mxCell>
        <mxCell id="hzU_NkVj4ORqpsmPhhT7-7" value="entry:fill data&lt;br&gt;do: validate data" style="text;html=1;strokeColor=none;fillColor=none;spacingLeft=4;spacingRight=4;whiteSpace=wrap;overflow=hidden;rotatable=0;points=[[0,0.5],[1,0.5]];portConstraint=eastwest;" parent="hzU_NkVj4ORqpsmPhhT7-6" vertex="1">
          <mxGeometry y="26" width="200" height="44" as="geometry" />
        </mxCell>
        <mxCell id="hzU_NkVj4ORqpsmPhhT7-8" value="Bill edits saved" style="swimlane;html=1;fontStyle=0;childLayout=stackLayout;horizontal=1;startSize=26;fillColor=#e0e0e0;horizontalStack=0;resizeParent=1;resizeLast=0;collapsible=1;marginBottom=0;swimlaneFillColor=#ffffff;align=center;rounded=1;shadow=0;comic=0;labelBackgroundColor=none;strokeWidth=1;fontFamily=Verdana;fontSize=12" parent="1" vertex="1">
          <mxGeometry x="550" y="600" width="200" height="76" as="geometry" />
        </mxCell>
        <mxCell id="hzU_NkVj4ORqpsmPhhT7-9" value="do:save edit" style="text;html=1;strokeColor=none;fillColor=none;spacingLeft=4;spacingRight=4;whiteSpace=wrap;overflow=hidden;rotatable=0;points=[[0,0.5],[1,0.5]];portConstraint=eastwest;" parent="hzU_NkVj4ORqpsmPhhT7-8" vertex="1">
          <mxGeometry y="26" width="200" height="34" as="geometry" />
        </mxCell>
        <mxCell id="hzU_NkVj4ORqpsmPhhT7-10" value="" style="edgeStyle=segmentEdgeStyle;endArrow=classic;html=1;" parent="1" target="hzU_NkVj4ORqpsmPhhT7-6" edge="1">
          <mxGeometry width="50" height="50" relative="1" as="geometry">
            <mxPoint x="550" y="515" as="sourcePoint" />
            <mxPoint x="580" y="460" as="targetPoint" />
            <Array as="points">
              <mxPoint x="510" y="515" />
              <mxPoint x="510" y="440" />
              <mxPoint x="580" y="440" />
              <mxPoint x="580" y="460" />
              <mxPoint x="584" y="460" />
            </Array>
          </mxGeometry>
        </mxCell>
        <mxCell id="hzU_NkVj4ORqpsmPhhT7-11" value="[invalidData]" style="text;html=1;strokeColor=none;fillColor=none;align=center;verticalAlign=middle;whiteSpace=wrap;rounded=0;" parent="1" vertex="1">
          <mxGeometry x="450" y="450" width="40" height="20" as="geometry" />
        </mxCell>
        <mxCell id="hzU_NkVj4ORqpsmPhhT7-14" value="save [ValidData]" style="text;html=1;strokeColor=none;fillColor=none;align=center;verticalAlign=middle;whiteSpace=wrap;rounded=0;" parent="1" vertex="1">
          <mxGeometry x="580" y="560" width="40" height="20" as="geometry" />
        </mxCell>
        <mxCell id="hzU_NkVj4ORqpsmPhhT7-15" value="" style="endArrow=classic;html=1;" parent="1" edge="1">
          <mxGeometry width="50" height="50" relative="1" as="geometry">
            <mxPoint x="640" y="546" as="sourcePoint" />
            <mxPoint x="640" y="600" as="targetPoint" />
          </mxGeometry>
        </mxCell>
        <mxCell id="d0l99uiaqlxAbVS5GRuo-25" value="Printing" style="swimlane;html=1;fontStyle=0;childLayout=stackLayout;horizontal=1;startSize=26;fillColor=#e0e0e0;horizontalStack=0;resizeParent=1;resizeLast=0;collapsible=1;marginBottom=0;swimlaneFillColor=#ffffff;align=center;rounded=1;shadow=0;comic=0;labelBackgroundColor=none;strokeWidth=1;fontFamily=Verdana;fontSize=12" parent="1" vertex="1">
          <mxGeometry x="790" y="387" width="150" height="76" as="geometry" />
        </mxCell>
        <mxCell id="d0l99uiaqlxAbVS5GRuo-26" value="do: perform printing on bill" style="text;html=1;strokeColor=none;fillColor=none;spacingLeft=4;spacingRight=4;whiteSpace=wrap;overflow=hidden;rotatable=0;points=[[0,0.5],[1,0.5]];portConstraint=eastwest;" parent="d0l99uiaqlxAbVS5GRuo-25" vertex="1">
          <mxGeometry y="26" width="150" height="34" as="geometry" />
        </mxCell>
        <mxCell id="hzU_NkVj4ORqpsmPhhT7-19" value="" style="endArrow=classic;html=1;" parent="1" edge="1">
          <mxGeometry width="50" height="50" relative="1" as="geometry">
            <mxPoint x="750" y="640" as="sourcePoint" />
            <mxPoint x="870" y="460" as="targetPoint" />
            <Array as="points">
              <mxPoint x="870" y="640" />
            </Array>
          </mxGeometry>
        </mxCell>
        <mxCell id="hzU_NkVj4ORqpsmPhhT7-20" value="print" style="text;html=1;strokeColor=none;fillColor=none;align=center;verticalAlign=middle;whiteSpace=wrap;rounded=0;" parent="1" vertex="1">
          <mxGeometry x="790" y="610" width="40" height="20" as="geometry" />
        </mxCell>
        <mxCell id="hzU_NkVj4ORqpsmPhhT7-22" value="Bill created" style="swimlane;html=1;fontStyle=0;childLayout=stackLayout;horizontal=1;startSize=26;fillColor=#e0e0e0;horizontalStack=0;resizeParent=1;resizeLast=0;collapsible=1;marginBottom=0;swimlaneFillColor=#ffffff;align=center;rounded=1;shadow=0;comic=0;labelBackgroundColor=none;strokeWidth=1;fontFamily=Verdana;fontSize=12" parent="1" vertex="1">
          <mxGeometry x="350" y="311" width="140" height="76" as="geometry" />
        </mxCell>
        <mxCell id="hzU_NkVj4ORqpsmPhhT7-23" value="do:save bill&lt;br&gt;exit:update bills list" style="text;html=1;strokeColor=none;fillColor=none;spacingLeft=4;spacingRight=4;whiteSpace=wrap;overflow=hidden;rotatable=0;points=[[0,0.5],[1,0.5]];portConstraint=eastwest;" parent="hzU_NkVj4ORqpsmPhhT7-22" vertex="1">
          <mxGeometry y="26" width="140" height="44" as="geometry" />
        </mxCell>
        <mxCell id="hzU_NkVj4ORqpsmPhhT7-24" value="" style="edgeStyle=segmentEdgeStyle;endArrow=classic;html=1;" parent="1" edge="1">
          <mxGeometry width="50" height="50" relative="1" as="geometry">
            <mxPoint x="350" y="336" as="sourcePoint" />
            <mxPoint x="389" y="130" as="targetPoint" />
            <Array as="points">
              <mxPoint x="270" y="336" />
              <mxPoint x="270" y="150" />
              <mxPoint x="389" y="150" />
            </Array>
          </mxGeometry>
        </mxCell>
        <mxCell id="d0l99uiaqlxAbVS5GRuo-15" value="Bill form" style="swimlane;html=1;fontStyle=0;childLayout=stackLayout;horizontal=1;startSize=26;fillColor=#e0e0e0;horizontalStack=0;resizeParent=1;resizeLast=0;collapsible=1;marginBottom=0;swimlaneFillColor=#ffffff;align=center;rounded=1;shadow=0;comic=0;labelBackgroundColor=none;strokeWidth=1;fontFamily=Verdana;fontSize=12" parent="1" vertex="1">
          <mxGeometry x="350" y="200" width="140" height="76" as="geometry" />
        </mxCell>
        <mxCell id="d0l99uiaqlxAbVS5GRuo-16" value="entry:fill data&lt;br&gt;do : validate data&lt;br&gt;exit: create bill" style="text;html=1;strokeColor=none;fillColor=none;spacingLeft=4;spacingRight=4;whiteSpace=wrap;overflow=hidden;rotatable=0;points=[[0,0.5],[1,0.5]];portConstraint=eastwest;" parent="d0l99uiaqlxAbVS5GRuo-15" vertex="1">
          <mxGeometry y="26" width="140" height="44" as="geometry" />
        </mxCell>
        <mxCell id="hzU_NkVj4ORqpsmPhhT7-25" value="" style="endArrow=classic;html=1;exitX=0.493;exitY=1.029;exitDx=0;exitDy=0;exitPerimeter=0;entryX=0.643;entryY=0;entryDx=0;entryDy=0;entryPerimeter=0;" parent="1" source="Hgtj_GoyG-KB-VZRIQT7-2" target="d0l99uiaqlxAbVS5GRuo-15" edge="1">
          <mxGeometry width="50" height="50" relative="1" as="geometry">
            <mxPoint x="440" y="160" as="sourcePoint" />
            <mxPoint x="440.5" y="194" as="targetPoint" />
          </mxGeometry>
        </mxCell>
        <mxCell id="hzU_NkVj4ORqpsmPhhT7-26" value="create" style="text;html=1;strokeColor=none;fillColor=none;align=center;verticalAlign=middle;whiteSpace=wrap;rounded=0;" parent="1" vertex="1">
          <mxGeometry x="450" y="150" width="40" height="20" as="geometry" />
        </mxCell>
        <mxCell id="hzU_NkVj4ORqpsmPhhT7-27" value="save[correctData]" style="text;html=1;strokeColor=none;fillColor=none;align=center;verticalAlign=middle;whiteSpace=wrap;rounded=0;" parent="1" vertex="1">
          <mxGeometry x="450" y="286" width="40" height="20" as="geometry" />
        </mxCell>
        <mxCell id="hzU_NkVj4ORqpsmPhhT7-31" value="" style="edgeStyle=segmentEdgeStyle;endArrow=classic;html=1;" parent="1" edge="1">
          <mxGeometry width="50" height="50" relative="1" as="geometry">
            <mxPoint x="350" y="245" as="sourcePoint" />
            <mxPoint x="384" y="200" as="targetPoint" />
            <Array as="points">
              <mxPoint x="320" y="245" />
              <mxPoint x="320" y="170" />
              <mxPoint x="380" y="170" />
              <mxPoint x="380" y="190" />
              <mxPoint x="384" y="190" />
            </Array>
          </mxGeometry>
        </mxCell>
        <mxCell id="hzU_NkVj4ORqpsmPhhT7-32" value="[invalidData]" style="text;html=1;strokeColor=none;fillColor=none;align=center;verticalAlign=middle;whiteSpace=wrap;rounded=0;" parent="1" vertex="1">
          <mxGeometry x="260" y="180" width="40" height="20" as="geometry" />
        </mxCell>
        <mxCell id="hzU_NkVj4ORqpsmPhhT7-33" value="" style="endArrow=classic;html=1;" parent="1" edge="1">
          <mxGeometry width="50" height="50" relative="1" as="geometry">
            <mxPoint x="430" y="386" as="sourcePoint" />
            <mxPoint x="870" y="740" as="targetPoint" />
            <Array as="points">
              <mxPoint x="430" y="740" />
            </Array>
          </mxGeometry>
        </mxCell>
        <mxCell id="hzU_NkVj4ORqpsmPhhT7-34" value="print" style="text;html=1;strokeColor=none;fillColor=none;align=center;verticalAlign=middle;whiteSpace=wrap;rounded=0;" parent="1" vertex="1">
          <mxGeometry x="750" y="367" width="40" height="20" as="geometry" />
        </mxCell>
        <mxCell id="WToOT8EpwFTD_yvPsE3v-1" value="" style="endArrow=classic;html=1;exitX=1;exitY=0.037;exitDx=0;exitDy=0;exitPerimeter=0;" parent="1" source="Hgtj_GoyG-KB-VZRIQT7-6" edge="1">
          <mxGeometry width="50" height="50" relative="1" as="geometry">
            <mxPoint x="800" y="125" as="sourcePoint" />
            <mxPoint x="780" y="70" as="targetPoint" />
            <Array as="points">
              <mxPoint x="840" y="100" />
              <mxPoint x="840" y="50" />
              <mxPoint x="780" y="50" />
            </Array>
          </mxGeometry>
        </mxCell>
        <mxCell id="WToOT8EpwFTD_yvPsE3v-2" value="[keywordInValid]" style="text;html=1;strokeColor=none;fillColor=none;align=center;verticalAlign=middle;whiteSpace=wrap;rounded=0;" parent="1" vertex="1">
          <mxGeometry x="865" y="65" width="40" height="20" as="geometry" />
        </mxCell>
      </root>
    </mxGraphModel>
  </diagram>
</mxfile>
